<svg id="Capa_1" enable-background="new 0 0 512 512" height="512" viewBox="0 0 512 512" width="512" xmlns="http://www.w3.org/2000/svg"><g><path d="m477 210.998h-56v-160c0-19.299-15.701-35-35-35h-230c-19.299 0-35 15.701-35 35v100h-86c-19.299 0-35 15.701-35 35v140c0 19.299 15.701 35 35 35h26v60c0 13.312 16.165 20.05 25.606 10.606l70.607-70.606h38.787v25c0 19.299 15.701 35 35 35h123.787l70.607 70.606c9.385 9.387 25.606 2.764 25.606-10.606v-60h26c19.299 0 35-15.701 35-35v-140c0-19.299-15.701-35-35-35zm-326-160c0-2.757 2.243-5 5-5h230c2.757 0 5 2.243 5 5v160h-90v-25c0-19.299-15.701-35-35-35h-115zm0 280c-3.978 0-7.793 1.581-10.606 4.394l-49.394 49.393v-38.787c0-8.284-6.716-15-15-15h-41c-2.757 0-5-2.243-5-5v-140c0-2.757 2.243-5 5-5h231c2.757 0 5 2.243 5 5v140c0 2.757-2.243 5-5 5zm331 55c0 2.757-2.243 5-5 5h-41c-8.284 0-15 6.716-15 15v38.787l-49.394-49.393c-2.813-2.813-6.628-4.394-10.606-4.394h-130c-2.757 0-5-2.243-5-5v-25h40c19.299 0 35-15.701 35-35v-85h176c2.757 0 5 2.243 5 5z"/><circle cx="151" cy="255.998" r="15"/><circle cx="211" cy="255.998" r="15"/><circle cx="91" cy="255.998" r="15"/><circle cx="346" cy="315.998" r="15"/><circle cx="406" cy="315.998" r="15"/><circle cx="271" cy="105.998" r="15"/><circle cx="331" cy="105.998" r="15"/><circle cx="211" cy="105.998" r="15"/></g></svg>